<svg width="26" height="26" viewBox="0 0 26 26" fill="none" xmlns="http://www.w3.org/2000/svg">
<g clip-path="url(#clip0)">
<path d="M13 26C10.4288 26 7.91543 25.2376 5.77759 23.8091C3.63975 22.3806 1.97351 20.3503 0.989572 17.9749C0.00563268 15.5994 -0.251811 12.9856 0.249797 10.4638C0.751405 7.94206 1.98954 5.62569 3.80762 3.8076C5.6257 1.98952 7.94208 0.75139 10.4638 0.249782C12.9856 -0.251826 15.5994 0.00561742 17.9749 0.989557C20.3503 1.9735 22.3806 3.63974 23.8091 5.77758C25.2376 7.91542 26 10.4288 26 13C25.9965 16.4467 24.6257 19.7513 22.1885 22.1885C19.7513 24.6257 16.4467 25.9965 13 26ZM13 2.20338C10.8646 2.20338 8.77722 2.83659 7.00173 4.02294C5.22624 5.20928 3.84241 6.89548 3.02524 8.86831C2.20807 10.8411 1.99426 13.012 2.41085 15.1063C2.82744 17.2006 3.85572 19.1244 5.36565 20.6343C6.87558 22.1443 8.79935 23.1726 10.8937 23.5891C12.988 24.0057 15.1589 23.7919 17.1317 22.9748C19.1045 22.1576 20.7907 20.7738 21.9771 18.9983C23.1634 17.2228 23.7966 15.1354 23.7966 13C23.7931 10.1376 22.6545 7.3935 20.6305 5.3695C18.6065 3.3455 15.8624 2.20688 13 2.20338Z" fill="white"/>
<path d="M19.1694 14.1017H6.83045C6.53827 14.1017 6.25805 13.9856 6.05144 13.779C5.84483 13.5724 5.72876 13.2922 5.72876 13C5.72876 12.7078 5.84483 12.4276 6.05144 12.221C6.25805 12.0144 6.53827 11.8983 6.83045 11.8983H19.1694C19.4616 11.8983 19.7418 12.0144 19.9485 12.221C20.1551 12.4276 20.2711 12.7078 20.2711 13C20.2711 13.2922 20.1551 13.5724 19.9485 13.779C19.7418 13.9856 19.4616 14.1017 19.1694 14.1017Z" fill="white"/>
<path d="M12.9999 20.2712C12.7077 20.2712 12.4275 20.1551 12.2209 19.9485C12.0143 19.7419 11.8982 19.4617 11.8982 19.1695V6.83051C11.8982 6.53832 12.0143 6.2581 12.2209 6.05149C12.4275 5.84488 12.7077 5.72881 12.9999 5.72881C13.2921 5.72881 13.5723 5.84488 13.7789 6.05149C13.9855 6.2581 14.1016 6.53832 14.1016 6.83051V19.1695C14.1016 19.4617 13.9855 19.7419 13.7789 19.9485C13.5723 20.1551 13.2921 20.2712 12.9999 20.2712Z" fill="white"/>
</g>
<defs>
<clipPath id="clip0">
<rect width="26" height="26" fill="white"/>
</clipPath>
</defs>
</svg>
