<svg width="31" height="32" viewBox="0 0 31 32" fill="none" xmlns="http://www.w3.org/2000/svg">
<path d="M22.9909 18.983H22.4213C22.0436 18.983 21.6814 18.8402 21.4144 18.5859C21.1473 18.3316 20.9973 17.9867 20.9973 17.6271C20.9973 17.2675 21.1473 16.9226 21.4144 16.6683C21.6814 16.414 22.0436 16.2712 22.4213 16.2712H22.9909C23.3686 16.2712 23.7308 16.414 23.9978 16.6683C24.2649 16.9226 24.4149 17.2675 24.4149 17.6271C24.4149 17.9867 24.2649 18.3316 23.9978 18.5859C23.7308 18.8402 23.3686 18.983 22.9909 18.983Z" fill="#3252DF"/>
<path d="M22.9909 26.5763H22.4213C22.0436 26.5763 21.6814 26.4334 21.4144 26.1791C21.1473 25.9248 20.9973 25.58 20.9973 25.2203C20.9973 24.8607 21.1473 24.5158 21.4144 24.2616C21.6814 24.0073 22.0436 23.8644 22.4213 23.8644H22.9909C23.3686 23.8644 23.7308 24.0073 23.9978 24.2616C24.2649 24.5158 24.4149 24.8607 24.4149 25.2203C24.4149 25.58 24.2649 25.9248 23.9978 26.1791C23.7308 26.4334 23.3686 26.5763 22.9909 26.5763Z" fill="#3252DF"/>
<path d="M8.75115 18.983H8.18156C7.80389 18.983 7.44169 18.8402 7.17464 18.5859C6.9076 18.3316 6.75757 17.9867 6.75757 17.6271C6.75757 17.2675 6.9076 16.9226 7.17464 16.6683C7.44169 16.414 7.80389 16.2712 8.18156 16.2712H8.75115C9.12881 16.2712 9.49101 16.414 9.75806 16.6683C10.0251 16.9226 10.1751 17.2675 10.1751 17.6271C10.1751 17.9867 10.0251 18.3316 9.75806 18.5859C9.49101 18.8402 9.12881 18.983 8.75115 18.983Z" fill="#3252DF"/>
<path d="M8.75115 26.5763H8.18156C7.80389 26.5763 7.44169 26.4334 7.17464 26.1791C6.9076 25.9248 6.75757 25.58 6.75757 25.2203C6.75757 24.8607 6.9076 24.5158 7.17464 24.2616C7.44169 24.0073 7.80389 23.8644 8.18156 23.8644H8.75115C9.12881 23.8644 9.49101 24.0073 9.75806 24.2616C10.0251 24.5158 10.1751 24.8607 10.1751 25.2203C10.1751 25.58 10.0251 25.9248 9.75806 26.1791C9.49101 26.4334 9.12881 26.5763 8.75115 26.5763Z" fill="#3252DF"/>
<path d="M15.8708 18.983H15.3012C14.9235 18.983 14.5613 18.8402 14.2943 18.5859C14.0272 18.3316 13.8772 17.9867 13.8772 17.6271C13.8772 17.2675 14.0272 16.9226 14.2943 16.6683C14.5613 16.414 14.9235 16.2712 15.3012 16.2712H15.8708C16.2484 16.2712 16.6106 16.414 16.8777 16.6683C17.1447 16.9226 17.2948 17.2675 17.2948 17.6271C17.2948 17.9867 17.1447 18.3316 16.8777 18.5859C16.6106 18.8402 16.2484 18.983 15.8708 18.983Z" fill="#3252DF"/>
<path d="M15.8708 26.5763H15.3012C14.9235 26.5763 14.5613 26.4334 14.2943 26.1791C14.0272 25.9248 13.8772 25.58 13.8772 25.2203C13.8772 24.8607 14.0272 24.5158 14.2943 24.2616C14.5613 24.0073 14.9235 23.8644 15.3012 23.8644H15.8708C16.2484 23.8644 16.6106 24.0073 16.8777 24.2616C17.1447 24.5158 17.2948 24.8607 17.2948 25.2203C17.2948 25.58 17.1447 25.9248 16.8777 26.1791C16.6106 26.4334 16.2484 26.5763 15.8708 26.5763Z" fill="#3252DF"/>
<path d="M22.706 6.50847C22.3283 6.50847 21.9661 6.36562 21.6991 6.11133C21.432 5.85704 21.282 5.51216 21.282 5.15254V1.35593C21.282 0.996317 21.432 0.65143 21.6991 0.397143C21.9661 0.142857 22.3283 0 22.706 0C23.0836 0 23.4458 0.142857 23.7129 0.397143C23.9799 0.65143 24.13 0.996317 24.13 1.35593V5.15254C24.13 5.33061 24.0931 5.50693 24.0216 5.67144C23.95 5.83594 23.8451 5.98542 23.7129 6.11133C23.5807 6.23724 23.4237 6.33712 23.2509 6.40526C23.0781 6.4734 22.893 6.50847 22.706 6.50847Z" fill="#3252DF"/>
<path d="M8.46622 6.50847C8.08856 6.50847 7.72636 6.36562 7.45931 6.11133C7.19226 5.85704 7.04224 5.51216 7.04224 5.15254V1.35593C7.04224 0.996317 7.19226 0.65143 7.45931 0.397143C7.72636 0.142857 8.08856 0 8.46622 0C8.84389 0 9.20608 0.142857 9.47313 0.397143C9.74018 0.65143 9.89021 0.996317 9.89021 1.35593V5.15254C9.89021 5.33061 9.85338 5.50693 9.78182 5.67144C9.71025 5.83594 9.60536 5.98542 9.47313 6.11133C9.3409 6.23724 9.18393 6.33712 9.01116 6.40526C8.83839 6.4734 8.65322 6.50847 8.46622 6.50847Z" fill="#3252DF"/>
<path d="M24.6995 32H6.47244C4.88671 31.9986 3.36637 31.3981 2.24508 30.3304C1.1238 29.2627 0.493207 27.815 0.491699 26.3051L0.491699 9.49152C0.493207 7.98157 1.1238 6.53388 2.24508 5.46619C3.36637 4.3985 4.88671 3.79804 6.47244 3.7966H24.6995C26.2852 3.79804 27.8056 4.3985 28.9268 5.46619C30.0481 6.53388 30.6787 7.98157 30.6802 9.49152V26.3051C30.6787 27.815 30.0481 29.2627 28.9268 30.3304C27.8056 31.3981 26.2852 31.9986 24.6995 32ZM6.47244 6.50846C5.64204 6.5099 4.84609 6.82464 4.2589 7.38376C3.67172 7.94288 3.34118 8.7008 3.33967 9.49152V26.3051C3.34118 27.0958 3.67172 27.8537 4.2589 28.4128C4.84609 28.9719 5.64204 29.2867 6.47244 29.2881H24.6995C25.5299 29.2867 26.3258 28.9719 26.913 28.4128C27.5002 27.8537 27.8307 27.0958 27.8322 26.3051V9.49152C27.8307 8.7008 27.5002 7.94288 26.913 7.38376C26.3258 6.82464 25.5299 6.5099 24.6995 6.50846H6.47244Z" fill="#3252DF"/>
<path d="M29.2562 13.5593H1.91569C1.53802 13.5593 1.17582 13.4165 0.908775 13.1622C0.641726 12.9079 0.491699 12.563 0.491699 12.2034C0.491699 11.8438 0.641726 11.4989 0.908775 11.2446C1.17582 10.9903 1.53802 10.8474 1.91569 10.8474H29.2562C29.6339 10.8474 29.9961 10.9903 30.2631 11.2446C30.5302 11.4989 30.6802 11.8438 30.6802 12.2034C30.6802 12.563 30.5302 12.9079 30.2631 13.1622C29.9961 13.4165 29.6339 13.5593 29.2562 13.5593Z" fill="#3252DF"/>
</svg>
