<svg width="22" height="14" viewBox="0 0 22 14" fill="none" xmlns="http://www.w3.org/2000/svg">
<path d="M8.20261 13.9992C7.95597 13.9977 7.71998 13.9034 7.54634 13.7369L0.271428 6.8255C0.0963849 6.65911 -0.00195313 6.43345 -0.00195312 6.19815C-0.00195312 5.96285 0.0963849 5.73719 0.271428 5.57081C0.446471 5.40443 0.68388 5.31096 0.931428 5.31096C1.17898 5.31096 1.41638 5.40443 1.59143 5.57081L8.20261 11.8584L20.407 0.2579C20.5821 0.091519 20.8195 -0.00195312 21.067 -0.00195312C21.3146 -0.00195312 21.552 0.091519 21.727 0.2579C21.9021 0.424282 22.0004 0.649943 22.0004 0.885242C22.0004 1.12054 21.9021 1.3462 21.727 1.51258L8.86261 13.7369C8.77619 13.8198 8.6734 13.8856 8.56013 13.9306C8.44687 13.9756 8.32537 13.9989 8.20261 13.9992Z" fill="white"/>
</svg>
