<svg width="16" height="21" viewBox="0 0 16 21" fill="none" xmlns="http://www.w3.org/2000/svg">
<path d="M8 21C7.80767 21 7.62053 20.9376 7.46667 20.822C7.16089 20.5907 0 15.1271 0 8.00847C0 5.8845 0.842855 3.84751 2.34315 2.34563C3.84344 0.843747 5.87827 0 8 0C10.1217 0 12.1566 0.843747 13.6569 2.34563C15.1571 3.84751 16 5.8845 16 8.00847C16 15.1271 8.83911 20.5907 8.53333 20.822C8.37947 20.9376 8.19233 21 8 21ZM8 1.77966C6.35034 1.78155 4.76879 2.4384 3.6023 3.60612C2.43582 4.77384 1.77966 6.35707 1.77778 8.00847C1.77778 13.1695 6.4 17.5902 8 18.9605C9.6 17.5902 14.2222 13.1695 14.2222 8.00847C14.2203 6.35707 13.5642 4.77384 12.3977 3.60612C11.2312 2.4384 9.64966 1.78155 8 1.77966Z" fill="#3256EA"/>
<path d="M7.99985 11.3898C7.33179 11.3898 6.67873 11.1915 6.12326 10.82C5.56778 10.4484 5.13485 9.92033 4.87919 9.30247C4.62353 8.6846 4.55664 8.00473 4.68697 7.34881C4.81731 6.69289 5.13901 6.09039 5.6114 5.6175C6.08379 5.14461 6.68565 4.82256 7.34088 4.69209C7.9961 4.56162 8.67526 4.62859 9.29247 4.88451C9.90968 5.14044 10.4372 5.57384 10.8084 6.1299C11.1795 6.68596 11.3776 7.33971 11.3776 8.00848C11.3767 8.90498 11.0205 9.76449 10.3873 10.3984C9.75401 11.0323 8.8954 11.3889 7.99985 11.3898ZM7.99985 6.40678C7.6834 6.40678 7.37406 6.50072 7.11094 6.67672C6.84782 6.85271 6.64274 7.10286 6.52164 7.39554C6.40054 7.68821 6.36886 8.01025 6.43059 8.32095C6.49233 8.63165 6.64471 8.91705 6.86848 9.14105C7.09224 9.36505 7.37733 9.5176 7.6877 9.5794C7.99807 9.6412 8.31978 9.60948 8.61214 9.48825C8.9045 9.36702 9.15439 9.16173 9.3302 8.89833C9.50601 8.63493 9.59985 8.32526 9.59985 8.00848C9.59891 7.58397 9.43004 7.17712 9.13018 6.87695C8.83033 6.57678 8.42391 6.40772 7.99985 6.40678Z" fill="#3256EA"/>
</svg>
