<svg width="22" height="22" viewBox="0 0 22 22" fill="none" xmlns="http://www.w3.org/2000/svg">
<g clip-path="url(#clip0)">
<path d="M8.76272 17.5254C7.02962 17.5254 5.33543 17.0115 3.89441 16.0486C2.45339 15.0858 1.33025 13.7172 0.667026 12.1161C0.00379678 10.5149 -0.169734 8.75299 0.168377 7.05319C0.506488 5.3534 1.34106 3.79203 2.56654 2.56654C3.79203 1.34106 5.3534 0.506488 7.0532 0.168377C8.753 -0.169734 10.5149 0.00379678 12.1161 0.667026C13.7172 1.33025 15.0858 2.45339 16.0486 3.89441C17.0115 5.33543 17.5254 7.02961 17.5254 8.76272C17.5235 11.0861 16.5996 13.3138 14.9567 14.9567C13.3138 16.5996 11.0861 17.5235 8.76272 17.5254ZM8.76272 1.86441C7.39836 1.86441 6.06464 2.26899 4.93022 3.02698C3.7958 3.78498 2.91163 4.86235 2.38951 6.12285C1.8674 7.38335 1.73079 8.77037 1.99696 10.1085C2.26313 11.4466 2.92013 12.6758 3.88488 13.6406C4.84962 14.6053 6.07878 15.2623 7.41692 15.5285C8.75506 15.7946 10.1421 15.658 11.4026 15.1359C12.6631 14.6138 13.7405 13.7296 14.4984 12.5952C15.2564 11.4608 15.661 10.1271 15.661 8.76272C15.659 6.93378 14.9316 5.18031 13.6384 3.88706C12.3451 2.5938 10.5917 1.86638 8.76272 1.86441Z" fill="#3252DF"/>
<path d="M21.0679 22C20.9453 22.0004 20.8239 21.9765 20.7107 21.9298C20.5974 21.8831 20.4945 21.8144 20.4079 21.7278L13.6401 14.96C13.465 14.7849 13.3667 14.5475 13.3667 14.3C13.3667 14.0524 13.465 13.815 13.6401 13.64C13.8151 13.4649 14.0525 13.3666 14.3001 13.3666C14.5476 13.3666 14.785 13.4649 14.9601 13.64L21.7279 20.4078C21.9014 20.5836 21.9987 20.8207 21.9987 21.0678C21.9987 21.3148 21.9014 21.5519 21.7279 21.7278C21.6413 21.8144 21.5384 21.8831 21.4251 21.9298C21.3118 21.9765 21.1904 22.0004 21.0679 22Z" fill="#3252DF"/>
</g>
<defs>
<clipPath id="clip0">
<rect width="22" height="22" fill="white"/>
</clipPath>
</defs>
</svg>
