<svg width="41" height="35" viewBox="0 0 41 35" fill="none" xmlns="http://www.w3.org/2000/svg">
<path d="M3.23834 35C3.62489 35.0007 4.00846 34.9262 4.37105 34.7799L38.9153 20.8164C39.5356 20.5655 40.0707 20.1132 40.4486 19.5203C40.8265 18.9274 41.0291 18.2224 41.0291 17.5C41.0291 16.7776 40.8265 16.0726 40.4486 15.4797C40.0707 14.8868 39.5356 14.4345 38.9153 14.1837L4.37105 0.22009C3.7613 -0.027927 3.09727 -0.0695951 2.46552 0.100517C1.83376 0.270629 1.26358 0.64463 0.829304 1.17377C0.39502 1.70292 0.116776 2.36266 0.0308342 3.06701C-0.0551109 3.77136 0.0552368 4.48765 0.347492 5.12252L6.01105 17.5L0.347492 29.8775C0.0998802 30.4164 -0.0174599 31.0154 0.00661087 31.6178C0.0306816 32.2201 0.19537 32.8057 0.485027 33.319C0.774689 33.8323 1.1797 34.2562 1.66159 34.5504C2.14348 34.8446 2.68625 34.9994 3.23834 35ZM37.0877 17.5L3.73173 31.0007L9.51342 18.35C9.63344 18.0858 9.69589 17.7949 9.69589 17.5C9.69589 17.2051 9.63344 16.9142 9.51342 16.6501L3.71783 4.00695L37.0877 17.5Z" fill="white"/>
<path d="M7.95688 19.3972H12.6128C13.0736 19.3972 13.5155 19.1973 13.8413 18.8415C14.1671 18.4857 14.3501 18.0032 14.3501 17.5C14.3501 16.9968 14.1671 16.5143 13.8413 16.1585C13.5155 15.8027 13.0736 15.6028 12.6128 15.6028H7.95688C7.49612 15.6028 7.05423 15.8027 6.72843 16.1585C6.40262 16.5143 6.21959 16.9968 6.21959 17.5C6.21959 18.0032 6.40262 18.4857 6.72843 18.8415C7.05423 19.1973 7.49612 19.3972 7.95688 19.3972Z" fill="white"/>
</svg>
