<svg width="21" height="21" viewBox="0 0 21 21" fill="none" xmlns="http://www.w3.org/2000/svg">
<path d="M13.1219 21H7.4576C6.53113 20.9965 5.63936 20.6663 4.95685 20.074C4.27434 19.4816 3.85023 18.6698 3.76751 17.7974L2.64941 5.13339L4.49446 4.98686L5.61994 17.6508C5.65712 18.0889 5.8678 18.4975 6.20987 18.795C6.55194 19.0926 7.00018 19.2571 7.46498 19.2556H13.1219C13.5852 19.2523 14.0307 19.0861 14.3717 18.7895C14.7127 18.493 14.9248 18.0871 14.9669 17.6508L16.074 4.98686L17.919 5.13339L16.7935 17.7974C16.7111 18.6668 16.2896 19.4762 15.611 20.0681C14.9324 20.6601 14.0452 20.9922 13.1219 21Z" fill="white"/>
<path d="M19.6608 5.93232H0.922523C0.677855 5.93232 0.443207 5.84043 0.270201 5.67686C0.0971941 5.5133 0 5.29146 0 5.06014C0 4.82883 0.0971941 4.60698 0.270201 4.44342C0.443207 4.27986 0.677855 4.18797 0.922523 4.18797H19.6608C19.9055 4.18797 20.1401 4.27986 20.3131 4.44342C20.4861 4.60698 20.5833 4.82883 20.5833 5.06014C20.5833 5.29146 20.4861 5.5133 20.3131 5.67686C20.1401 5.84043 19.9055 5.93232 19.6608 5.93232Z" fill="white"/>
<path d="M15.2032 5.9323H13.3581V5.06012C13.3571 4.29152 13.0337 3.55465 12.4589 3.01116C11.884 2.46767 11.1046 2.16194 10.2916 2.16101C9.48163 2.17096 8.70776 2.47959 8.13495 3.02114C7.56214 3.56269 7.23569 4.29432 7.22517 5.06012V5.9323H5.38013V5.06012C5.38013 3.8286 5.89759 2.64752 6.81868 1.7767C7.73976 0.905884 8.98903 0.416664 10.2916 0.416664C11.5943 0.416664 12.8435 0.905884 13.7646 1.7767C14.6857 2.64752 15.2032 3.8286 15.2032 5.06012V5.9323Z" fill="white"/>
<path d="M12.0149 16.2519H11.9521C11.8312 16.2443 11.7131 16.2144 11.6044 16.1636C11.4958 16.1129 11.3988 16.0424 11.3189 15.9563C11.2391 15.8701 11.178 15.7699 11.1391 15.6614C11.1002 15.5529 11.0843 15.4382 11.0924 15.3239L11.4614 10.2967C11.4775 10.0654 11.5902 9.84957 11.7746 9.69681C11.959 9.54404 12.2001 9.46679 12.4448 9.48206C12.6894 9.49732 12.9177 9.60385 13.0793 9.77821C13.2408 9.95257 13.3226 10.1805 13.3064 10.4118L12.9374 15.439C12.9206 15.6596 12.8162 15.866 12.6451 16.0168C12.4739 16.1676 12.2488 16.2516 12.0149 16.2519Z" fill="white"/>
<path d="M8.56842 16.2519C8.33428 16.2514 8.10908 16.1669 7.93846 16.0153C7.76784 15.8637 7.66457 15.6564 7.64958 15.4355L7.28057 10.4083C7.26443 10.177 7.34613 9.94907 7.50772 9.77471C7.66931 9.60035 7.89754 9.49382 8.14221 9.47855C8.38688 9.46329 8.62794 9.54053 8.81237 9.6933C8.99679 9.84607 9.10947 10.0618 9.12562 10.2932L9.49463 15.3204C9.50265 15.4347 9.48677 15.5494 9.4479 15.6579C9.40902 15.7664 9.34792 15.8666 9.26808 15.9528C9.18823 16.039 9.09121 16.1094 8.98256 16.1601C8.87391 16.2109 8.75575 16.2408 8.63484 16.2484L8.56842 16.2519Z" fill="white"/>
</svg>
